M48
; DRILL file {KiCad (5.1.9)-1} date 08/14/21 02:32:26
; FORMAT={-:-/ absolute / inch / decimal}
; #@! TF.CreationDate,2021-08-14T02:32:26-04:00
; #@! TF.GenerationSoftware,Kicad,Pcbnew,(5.1.9)-1
; #@! TF.FileFunction,Plated,1,2,PTH
FMAT,2
INCH
T1C0.0157
T2C0.0276
T3C0.0394
T4C0.0579
%
G90
G05
T1
X4.105Y-2.715
X4.14Y-2.575
X4.29Y-2.375
X4.66Y-2.335
T3
X3.69Y-2.835
X3.79Y-2.835
X3.89Y-2.835
X3.99Y-2.835
T4
X4.9441Y-2.3694
X4.9957Y-2.312
X5.1925Y-2.2923
X5.1941Y-2.2694
X5.695Y-2.37
X5.7466Y-2.3125
X5.9434Y-2.2928
X5.945Y-2.27
X6.445Y-2.37
X6.4966Y-2.3125
X6.6934Y-2.2928
X6.695Y-2.27
T2
G00X3.6364Y-2.1363
M15
G01X3.6836Y-2.1363
M16
G05
G00X3.6364Y-2.4237
M15
G01X3.6836Y-2.4237
M16
G05
G00X3.8135Y-2.1363
M15
G01X3.8608Y-2.1363
M16
G05
G00X3.8135Y-2.4237
M15
G01X3.8608Y-2.4237
M16
G05
T0
M30
