%TF.GenerationSoftware,KiCad,Pcbnew,(5.1.9)-1*%
%TF.CreationDate,2021-08-14T13:48:32-04:00*%
%TF.ProjectId,samd21,73616d64-3231-42e6-9b69-6361645f7063,rev?*%
%TF.SameCoordinates,Original*%
%TF.FileFunction,Copper,L1,Top*%
%TF.FilePolarity,Positive*%
%FSLAX46Y46*%
G04 Gerber Fmt 4.6, Leading zero omitted, Abs format (unit mm)*
G04 Created by KiCad (PCBNEW (5.1.9)-1) date 2021-08-14 13:48:32*
%MOMM*%
%LPD*%
G01*
G04 APERTURE LIST*
%TA.AperFunction,ComponentPad*%
%ADD10O,1.700000X1.700000*%
%TD*%
%TA.AperFunction,ComponentPad*%
%ADD11R,1.700000X1.700000*%
%TD*%
%TA.AperFunction,ComponentPad*%
%ADD12O,2.700000X1.700000*%
%TD*%
%TA.AperFunction,SMDPad,CuDef*%
%ADD13R,2.250000X0.500000*%
%TD*%
%TA.AperFunction,SMDPad,CuDef*%
%ADD14R,1.800000X1.100000*%
%TD*%
%TA.AperFunction,SMDPad,CuDef*%
%ADD15R,1.600000X0.550000*%
%TD*%
%TA.AperFunction,SMDPad,CuDef*%
%ADD16R,0.550000X1.600000*%
%TD*%
%TA.AperFunction,SMDPad,CuDef*%
%ADD17R,1.060000X0.650000*%
%TD*%
%TA.AperFunction,ComponentPad*%
%ADD18C,2.250000*%
%TD*%
%TA.AperFunction,ViaPad*%
%ADD19C,0.800000*%
%TD*%
%TA.AperFunction,Conductor*%
%ADD20C,0.254000*%
%TD*%
%TA.AperFunction,Conductor*%
%ADD21C,0.381000*%
%TD*%
G04 APERTURE END LIST*
D10*
%TO.P,J1,4*%
%TO.N,GND*%
X101346000Y-72009000D03*
%TO.P,J1,3*%
%TO.N,SWDIO*%
X98806000Y-72009000D03*
%TO.P,J1,2*%
%TO.N,SWCLK*%
X96266000Y-72009000D03*
D11*
%TO.P,J1,1*%
%TO.N,+3V3*%
X93726000Y-72009000D03*
%TD*%
D12*
%TO.P,USB1,6*%
%TO.N,GND*%
X92964000Y-54262000D03*
X92964000Y-61562000D03*
X97464000Y-61562000D03*
X97464000Y-54262000D03*
D13*
%TO.P,USB1,5*%
%TO.N,/5V*%
X97464000Y-56312000D03*
%TO.P,USB1,4*%
%TO.N,D-*%
X97464000Y-57112000D03*
%TO.P,USB1,3*%
%TO.N,D+*%
X97464000Y-57912000D03*
%TO.P,USB1,2*%
%TO.N,Net-(USB1-Pad2)*%
X97464000Y-58712000D03*
%TO.P,USB1,1*%
%TO.N,GND*%
X97464000Y-59512000D03*
%TD*%
D14*
%TO.P,SW1,4*%
%TO.N,N/C*%
X110894000Y-61087000D03*
%TO.P,SW1,3*%
X117094000Y-57387000D03*
%TO.P,SW1,2*%
%TO.N,Net-(SW1-Pad2)*%
X110894000Y-57387000D03*
%TO.P,SW1,1*%
%TO.N,GND*%
X117094000Y-61087000D03*
%TD*%
D15*
%TO.P,U2,32*%
%TO.N,SWDIO*%
X107002000Y-70491000D03*
%TO.P,U2,31*%
%TO.N,SWCLK*%
X107002000Y-69691000D03*
%TO.P,U2,30*%
%TO.N,+3V3*%
X107002000Y-68891000D03*
%TO.P,U2,29*%
%TO.N,Net-(C1-Pad2)*%
X107002000Y-68091000D03*
%TO.P,U2,28*%
%TO.N,GND*%
X107002000Y-67291000D03*
%TO.P,U2,27*%
%TO.N,Net-(U2-Pad27)*%
X107002000Y-66491000D03*
%TO.P,U2,26*%
%TO.N,Net-(SW1-Pad2)*%
X107002000Y-65691000D03*
%TO.P,U2,25*%
%TO.N,Net-(R1-Pad1)*%
X107002000Y-64891000D03*
D16*
%TO.P,U2,24*%
%TO.N,D+*%
X108452000Y-63441000D03*
%TO.P,U2,23*%
%TO.N,D-*%
X109252000Y-63441000D03*
%TO.P,U2,22*%
%TO.N,Net-(U2-Pad22)*%
X110052000Y-63441000D03*
%TO.P,U2,21*%
%TO.N,Net-(U2-Pad21)*%
X110852000Y-63441000D03*
%TO.P,U2,20*%
%TO.N,Net-(U2-Pad20)*%
X111652000Y-63441000D03*
%TO.P,U2,19*%
%TO.N,Net-(U2-Pad19)*%
X112452000Y-63441000D03*
%TO.P,U2,18*%
%TO.N,Net-(U2-Pad18)*%
X113252000Y-63441000D03*
%TO.P,U2,17*%
%TO.N,Net-(U2-Pad17)*%
X114052000Y-63441000D03*
D15*
%TO.P,U2,16*%
%TO.N,Net-(U2-Pad16)*%
X115502000Y-64891000D03*
%TO.P,U2,15*%
%TO.N,Net-(U2-Pad15)*%
X115502000Y-65691000D03*
%TO.P,U2,14*%
%TO.N,Net-(U2-Pad14)*%
X115502000Y-66491000D03*
%TO.P,U2,13*%
%TO.N,Net-(U2-Pad13)*%
X115502000Y-67291000D03*
%TO.P,U2,12*%
%TO.N,Net-(U2-Pad12)*%
X115502000Y-68091000D03*
%TO.P,U2,11*%
%TO.N,Net-(U2-Pad11)*%
X115502000Y-68891000D03*
%TO.P,U2,10*%
%TO.N,GND*%
X115502000Y-69691000D03*
%TO.P,U2,9*%
%TO.N,+3V3*%
X115502000Y-70491000D03*
D16*
%TO.P,U2,8*%
%TO.N,KEY1*%
X114052000Y-71941000D03*
%TO.P,U2,7*%
%TO.N,KEY2*%
X113252000Y-71941000D03*
%TO.P,U2,6*%
%TO.N,KEY3*%
X112452000Y-71941000D03*
%TO.P,U2,5*%
%TO.N,Net-(U2-Pad5)*%
X111652000Y-71941000D03*
%TO.P,U2,4*%
%TO.N,Net-(U2-Pad4)*%
X110852000Y-71941000D03*
%TO.P,U2,3*%
%TO.N,Net-(U2-Pad3)*%
X110052000Y-71941000D03*
%TO.P,U2,2*%
%TO.N,Net-(U2-Pad2)*%
X109252000Y-71941000D03*
%TO.P,U2,1*%
%TO.N,Net-(U2-Pad1)*%
X108452000Y-71941000D03*
%TD*%
D17*
%TO.P,U1,5*%
%TO.N,+3V3*%
X112436000Y-53340000D03*
%TO.P,U1,4*%
%TO.N,Net-(U1-Pad4)*%
X112436000Y-55240000D03*
%TO.P,U1,3*%
%TO.N,/5V*%
X110236000Y-55240000D03*
%TO.P,U1,2*%
%TO.N,GND*%
X110236000Y-54290000D03*
%TO.P,U1,1*%
%TO.N,/5V*%
X110236000Y-53340000D03*
%TD*%
%TO.P,R1,2*%
%TO.N,Net-(D1-Pad2)*%
%TA.AperFunction,SMDPad,CuDef*%
G36*
G01*
X99699500Y-64827998D02*
X99699500Y-65728002D01*
G75*
G02*
X99449502Y-65978000I-249998J0D01*
G01*
X98924498Y-65978000D01*
G75*
G02*
X98674500Y-65728002I0J249998D01*
G01*
X98674500Y-64827998D01*
G75*
G02*
X98924498Y-64578000I249998J0D01*
G01*
X99449502Y-64578000D01*
G75*
G02*
X99699500Y-64827998I0J-249998D01*
G01*
G37*
%TD.AperFunction*%
%TO.P,R1,1*%
%TO.N,Net-(R1-Pad1)*%
%TA.AperFunction,SMDPad,CuDef*%
G36*
G01*
X101524500Y-64827998D02*
X101524500Y-65728002D01*
G75*
G02*
X101274502Y-65978000I-249998J0D01*
G01*
X100749498Y-65978000D01*
G75*
G02*
X100499500Y-65728002I0J249998D01*
G01*
X100499500Y-64827998D01*
G75*
G02*
X100749498Y-64578000I249998J0D01*
G01*
X101274502Y-64578000D01*
G75*
G02*
X101524500Y-64827998I0J-249998D01*
G01*
G37*
%TD.AperFunction*%
%TD*%
D18*
%TO.P,MX3,1*%
%TO.N,GND*%
X165013000Y-58738000D03*
%TA.AperFunction,ComponentPad*%
G36*
G01*
X162951688Y-61035350D02*
X162951683Y-61035345D01*
G75*
G02*
X162865655Y-59446683I751317J837345D01*
G01*
X164175657Y-57986683D01*
G75*
G02*
X165764319Y-57900655I837345J-751317D01*
G01*
X165764319Y-57900655D01*
G75*
G02*
X165850347Y-59489317I-751317J-837345D01*
G01*
X164540345Y-60949317D01*
G75*
G02*
X162951683Y-61035345I-837345J751317D01*
G01*
G37*
%TD.AperFunction*%
%TO.P,MX3,2*%
%TO.N,KEY3*%
X170053000Y-57658000D03*
%TA.AperFunction,ComponentPad*%
G36*
G01*
X169936483Y-59360395D02*
X169935597Y-59360334D01*
G75*
G02*
X168890666Y-58160597I77403J1122334D01*
G01*
X168930666Y-57580597D01*
G75*
G02*
X170130403Y-56535666I1122334J-77403D01*
G01*
X170130403Y-56535666D01*
G75*
G02*
X171175334Y-57735403I-77403J-1122334D01*
G01*
X171135334Y-58315403D01*
G75*
G02*
X169935597Y-59360334I-1122334J77403D01*
G01*
G37*
%TD.AperFunction*%
%TD*%
%TO.P,MX2,1*%
%TO.N,GND*%
X145963000Y-58738000D03*
%TA.AperFunction,ComponentPad*%
G36*
G01*
X143901688Y-61035350D02*
X143901683Y-61035345D01*
G75*
G02*
X143815655Y-59446683I751317J837345D01*
G01*
X145125657Y-57986683D01*
G75*
G02*
X146714319Y-57900655I837345J-751317D01*
G01*
X146714319Y-57900655D01*
G75*
G02*
X146800347Y-59489317I-751317J-837345D01*
G01*
X145490345Y-60949317D01*
G75*
G02*
X143901683Y-61035345I-837345J751317D01*
G01*
G37*
%TD.AperFunction*%
%TO.P,MX2,2*%
%TO.N,KEY2*%
X151003000Y-57658000D03*
%TA.AperFunction,ComponentPad*%
G36*
G01*
X150886483Y-59360395D02*
X150885597Y-59360334D01*
G75*
G02*
X149840666Y-58160597I77403J1122334D01*
G01*
X149880666Y-57580597D01*
G75*
G02*
X151080403Y-56535666I1122334J-77403D01*
G01*
X151080403Y-56535666D01*
G75*
G02*
X152125334Y-57735403I-77403J-1122334D01*
G01*
X152085334Y-58315403D01*
G75*
G02*
X150885597Y-59360334I-1122334J77403D01*
G01*
G37*
%TD.AperFunction*%
%TD*%
%TO.P,MX1,1*%
%TO.N,GND*%
X126890000Y-58724000D03*
%TA.AperFunction,ComponentPad*%
G36*
G01*
X124828688Y-61021350D02*
X124828683Y-61021345D01*
G75*
G02*
X124742655Y-59432683I751317J837345D01*
G01*
X126052657Y-57972683D01*
G75*
G02*
X127641319Y-57886655I837345J-751317D01*
G01*
X127641319Y-57886655D01*
G75*
G02*
X127727347Y-59475317I-751317J-837345D01*
G01*
X126417345Y-60935317D01*
G75*
G02*
X124828683Y-61021345I-837345J751317D01*
G01*
G37*
%TD.AperFunction*%
%TO.P,MX1,2*%
%TO.N,KEY1*%
X131930000Y-57644000D03*
%TA.AperFunction,ComponentPad*%
G36*
G01*
X131813483Y-59346395D02*
X131812597Y-59346334D01*
G75*
G02*
X130767666Y-58146597I77403J1122334D01*
G01*
X130807666Y-57566597D01*
G75*
G02*
X132007403Y-56521666I1122334J-77403D01*
G01*
X132007403Y-56521666D01*
G75*
G02*
X133052334Y-57721403I-77403J-1122334D01*
G01*
X133012334Y-58301403D01*
G75*
G02*
X131812597Y-59346334I-1122334J77403D01*
G01*
G37*
%TD.AperFunction*%
%TD*%
%TO.P,D1,2*%
%TO.N,Net-(D1-Pad2)*%
%TA.AperFunction,SMDPad,CuDef*%
G36*
G01*
X95065000Y-65734250D02*
X95065000Y-64821750D01*
G75*
G02*
X95308750Y-64578000I243750J0D01*
G01*
X95796250Y-64578000D01*
G75*
G02*
X96040000Y-64821750I0J-243750D01*
G01*
X96040000Y-65734250D01*
G75*
G02*
X95796250Y-65978000I-243750J0D01*
G01*
X95308750Y-65978000D01*
G75*
G02*
X95065000Y-65734250I0J243750D01*
G01*
G37*
%TD.AperFunction*%
%TO.P,D1,1*%
%TO.N,GND*%
%TA.AperFunction,SMDPad,CuDef*%
G36*
G01*
X93190000Y-65734250D02*
X93190000Y-64821750D01*
G75*
G02*
X93433750Y-64578000I243750J0D01*
G01*
X93921250Y-64578000D01*
G75*
G02*
X94165000Y-64821750I0J-243750D01*
G01*
X94165000Y-65734250D01*
G75*
G02*
X93921250Y-65978000I-243750J0D01*
G01*
X93433750Y-65978000D01*
G75*
G02*
X93190000Y-65734250I0J243750D01*
G01*
G37*
%TD.AperFunction*%
%TD*%
%TO.P,C3,2*%
%TO.N,GND*%
%TA.AperFunction,SMDPad,CuDef*%
G36*
G01*
X115222000Y-54740000D02*
X116172000Y-54740000D01*
G75*
G02*
X116422000Y-54990000I0J-250000D01*
G01*
X116422000Y-55490000D01*
G75*
G02*
X116172000Y-55740000I-250000J0D01*
G01*
X115222000Y-55740000D01*
G75*
G02*
X114972000Y-55490000I0J250000D01*
G01*
X114972000Y-54990000D01*
G75*
G02*
X115222000Y-54740000I250000J0D01*
G01*
G37*
%TD.AperFunction*%
%TO.P,C3,1*%
%TO.N,+3V3*%
%TA.AperFunction,SMDPad,CuDef*%
G36*
G01*
X115222000Y-52840000D02*
X116172000Y-52840000D01*
G75*
G02*
X116422000Y-53090000I0J-250000D01*
G01*
X116422000Y-53590000D01*
G75*
G02*
X116172000Y-53840000I-250000J0D01*
G01*
X115222000Y-53840000D01*
G75*
G02*
X114972000Y-53590000I0J250000D01*
G01*
X114972000Y-53090000D01*
G75*
G02*
X115222000Y-52840000I250000J0D01*
G01*
G37*
%TD.AperFunction*%
%TD*%
%TO.P,C2,2*%
%TO.N,GND*%
%TA.AperFunction,SMDPad,CuDef*%
G36*
G01*
X106332000Y-54740000D02*
X107282000Y-54740000D01*
G75*
G02*
X107532000Y-54990000I0J-250000D01*
G01*
X107532000Y-55490000D01*
G75*
G02*
X107282000Y-55740000I-250000J0D01*
G01*
X106332000Y-55740000D01*
G75*
G02*
X106082000Y-55490000I0J250000D01*
G01*
X106082000Y-54990000D01*
G75*
G02*
X106332000Y-54740000I250000J0D01*
G01*
G37*
%TD.AperFunction*%
%TO.P,C2,1*%
%TO.N,/5V*%
%TA.AperFunction,SMDPad,CuDef*%
G36*
G01*
X106332000Y-52840000D02*
X107282000Y-52840000D01*
G75*
G02*
X107532000Y-53090000I0J-250000D01*
G01*
X107532000Y-53590000D01*
G75*
G02*
X107282000Y-53840000I-250000J0D01*
G01*
X106332000Y-53840000D01*
G75*
G02*
X106082000Y-53590000I0J250000D01*
G01*
X106082000Y-53090000D01*
G75*
G02*
X106332000Y-52840000I250000J0D01*
G01*
G37*
%TD.AperFunction*%
%TD*%
%TO.P,C1,2*%
%TO.N,Net-(C1-Pad2)*%
%TA.AperFunction,SMDPad,CuDef*%
G36*
G01*
X97798000Y-68039000D02*
X97798000Y-67089000D01*
G75*
G02*
X98048000Y-66839000I250000J0D01*
G01*
X98548000Y-66839000D01*
G75*
G02*
X98798000Y-67089000I0J-250000D01*
G01*
X98798000Y-68039000D01*
G75*
G02*
X98548000Y-68289000I-250000J0D01*
G01*
X98048000Y-68289000D01*
G75*
G02*
X97798000Y-68039000I0J250000D01*
G01*
G37*
%TD.AperFunction*%
%TO.P,C1,1*%
%TO.N,GND*%
%TA.AperFunction,SMDPad,CuDef*%
G36*
G01*
X95898000Y-68039000D02*
X95898000Y-67089000D01*
G75*
G02*
X96148000Y-66839000I250000J0D01*
G01*
X96648000Y-66839000D01*
G75*
G02*
X96898000Y-67089000I0J-250000D01*
G01*
X96898000Y-68039000D01*
G75*
G02*
X96648000Y-68289000I-250000J0D01*
G01*
X96148000Y-68289000D01*
G75*
G02*
X95898000Y-68039000I0J250000D01*
G01*
G37*
%TD.AperFunction*%
%TD*%
D19*
%TO.N,+3V3*%
X104267000Y-68961000D03*
X118364000Y-59309000D03*
%TO.N,Net-(SW1-Pad2)*%
X108966000Y-60325000D03*
X105156000Y-65405000D03*
%TD*%
D20*
%TO.N,Net-(C1-Pad2)*%
X98825000Y-68091000D02*
X107002000Y-68091000D01*
X98298000Y-67564000D02*
X98825000Y-68091000D01*
D21*
%TO.N,GND*%
X111147000Y-54290000D02*
X110236000Y-54290000D01*
X111156501Y-54299501D02*
X111147000Y-54290000D01*
X111156501Y-55877401D02*
X111156501Y-54299501D01*
X111078401Y-55955501D02*
X111156501Y-55877401D01*
X106807000Y-55240000D02*
X107522501Y-55955501D01*
X107522501Y-55955501D02*
X109525499Y-55955501D01*
X110160499Y-55955501D02*
X111078401Y-55955501D01*
X109525499Y-55955501D02*
X110160499Y-55955501D01*
X107979902Y-67291000D02*
X107002000Y-67291000D01*
X110379902Y-69691000D02*
X107979902Y-67291000D01*
X115502000Y-69691000D02*
X110379902Y-69691000D01*
X116812510Y-54124490D02*
X115697000Y-55240000D01*
X116437310Y-52449490D02*
X116812510Y-52824690D01*
X111156501Y-53061597D02*
X111768608Y-52449490D01*
X116812510Y-52824690D02*
X116812510Y-54124490D01*
X111156501Y-54299501D02*
X111156501Y-53061597D01*
X95963500Y-67564000D02*
X93677500Y-65278000D01*
X96398000Y-67564000D02*
X95963500Y-67564000D01*
X106024098Y-67291000D02*
X107002000Y-67291000D01*
X105181588Y-66448490D02*
X106024098Y-67291000D01*
X97513510Y-66448490D02*
X105181588Y-66448490D01*
X96398000Y-67564000D02*
X97513510Y-66448490D01*
X97464000Y-59512000D02*
X97464000Y-61562000D01*
X97464000Y-61562000D02*
X92964000Y-61562000D01*
X92964000Y-61562000D02*
X92964000Y-54262000D01*
X97464000Y-54262000D02*
X92964000Y-54262000D01*
X112904510Y-52449490D02*
X116437310Y-52449490D01*
X111768608Y-52449490D02*
X112904510Y-52449490D01*
X111962501Y-55955501D02*
X117094000Y-61087000D01*
X111234601Y-55955501D02*
X111962501Y-55955501D01*
X111156501Y-55877401D02*
X111234601Y-55955501D01*
X100105499Y-73249501D02*
X101346000Y-72009000D01*
X92563599Y-73249501D02*
X100105499Y-73249501D01*
X92485499Y-73171401D02*
X92563599Y-73249501D01*
X92485499Y-66470001D02*
X92485499Y-73171401D01*
X93677500Y-65278000D02*
X92485499Y-66470001D01*
X93677500Y-62275500D02*
X92964000Y-61562000D01*
X93677500Y-65278000D02*
X93677500Y-62275500D01*
X104230980Y-54262000D02*
X106043490Y-52449490D01*
X97464000Y-54262000D02*
X104230980Y-54262000D01*
X106043490Y-52449490D02*
X112904510Y-52449490D01*
%TO.N,+3V3*%
X112436000Y-53340000D02*
X114046000Y-53340000D01*
X114046000Y-53340000D02*
X115697000Y-53340000D01*
X106932000Y-68961000D02*
X107002000Y-68891000D01*
X104267000Y-68961000D02*
X106932000Y-68961000D01*
X115272679Y-56446499D02*
X118306401Y-56446499D01*
X114046000Y-55219820D02*
X115272679Y-56446499D01*
X114046000Y-53340000D02*
X114046000Y-55219820D01*
X96774000Y-68961000D02*
X104267000Y-68961000D01*
X93726000Y-72009000D02*
X96774000Y-68961000D01*
%TO.N,GND*%
X126325501Y-59288499D02*
X126890000Y-58724000D01*
%TO.N,+3V3*%
X118763999Y-56904097D02*
X118306401Y-56446499D01*
X118763999Y-58909001D02*
X118763999Y-56904097D01*
X118364000Y-59309000D02*
X118763999Y-58909001D01*
X116479902Y-70491000D02*
X115502000Y-70491000D01*
X116692501Y-70278401D02*
X116479902Y-70491000D01*
X116692501Y-62463501D02*
X116692501Y-70278401D01*
X117870401Y-62463501D02*
X116692501Y-62463501D01*
X118763999Y-61569903D02*
X117870401Y-62463501D01*
X118763999Y-59708999D02*
X118763999Y-61569903D01*
X118364000Y-59309000D02*
X118763999Y-59708999D01*
%TO.N,GND*%
X120636000Y-55240000D02*
X125580000Y-60184000D01*
X115697000Y-55240000D02*
X120636000Y-55240000D01*
D20*
%TO.N,Net-(D1-Pad2)*%
X99187000Y-65278000D02*
X95552500Y-65278000D01*
%TO.N,KEY1*%
X114724991Y-72613991D02*
X114052000Y-71941000D01*
X130840009Y-72613991D02*
X114724991Y-72613991D01*
X131890000Y-71564000D02*
X130840009Y-72613991D01*
X131890000Y-58224000D02*
X131890000Y-71564000D01*
%TO.N,KEY2*%
X113252000Y-72993000D02*
X113252000Y-71941000D01*
X113327001Y-73068001D02*
X113252000Y-72993000D01*
X141567933Y-73068001D02*
X113327001Y-73068001D01*
X150963000Y-63672934D02*
X141567933Y-73068001D01*
X150963000Y-58238000D02*
X150963000Y-63672934D01*
%TO.N,KEY3*%
X112452000Y-72835067D02*
X112452000Y-71941000D01*
X113138944Y-73522011D02*
X112452000Y-72835067D01*
X160163923Y-73522011D02*
X113138944Y-73522011D01*
X170013000Y-63672934D02*
X160163923Y-73522011D01*
X170013000Y-58238000D02*
X170013000Y-63672934D01*
%TO.N,Net-(R1-Pad1)*%
X101012000Y-65278000D02*
X101399000Y-64891000D01*
X101612001Y-64677999D02*
X101012000Y-65278000D01*
X105504961Y-64677999D02*
X101612001Y-64677999D01*
X105717962Y-64891000D02*
X105504961Y-64677999D01*
X107002000Y-64891000D02*
X105717962Y-64891000D01*
%TO.N,Net-(SW1-Pad2)*%
X110894000Y-58397000D02*
X108966000Y-60325000D01*
X110894000Y-57387000D02*
X110894000Y-58397000D01*
X105442000Y-65691000D02*
X107002000Y-65691000D01*
X105156000Y-65405000D02*
X105442000Y-65691000D01*
%TO.N,SWDIO*%
X106138398Y-70491000D02*
X107002000Y-70491000D01*
X100324000Y-70491000D02*
X98806000Y-72009000D01*
X107002000Y-70491000D02*
X100324000Y-70491000D01*
%TO.N,SWCLK*%
X98584000Y-69691000D02*
X96266000Y-72009000D01*
X107002000Y-69691000D02*
X98584000Y-69691000D01*
%TO.N,D+*%
X108452000Y-63441000D02*
X108452000Y-62229066D01*
X108452000Y-62229066D02*
X104134934Y-57912000D01*
X97464000Y-57912000D02*
X100711000Y-57912000D01*
X100711000Y-57912000D02*
X100004000Y-57912000D01*
X104134934Y-57912000D02*
X100711000Y-57912000D01*
%TO.N,D-*%
X109252000Y-62387000D02*
X103977000Y-57112000D01*
X109252000Y-63441000D02*
X109252000Y-62387000D01*
X97464000Y-57112000D02*
X100495000Y-57112000D01*
X100495000Y-57112000D02*
X100004000Y-57112000D01*
X103977000Y-57112000D02*
X100495000Y-57112000D01*
D21*
%TO.N,/5V*%
X103835000Y-56312000D02*
X106807000Y-53340000D01*
X108712000Y-53340000D02*
X108712000Y-54323902D01*
X106807000Y-53340000D02*
X108712000Y-53340000D01*
X108712000Y-53340000D02*
X110236000Y-53340000D01*
X109628098Y-55240000D02*
X110236000Y-55240000D01*
X108712000Y-54323902D02*
X109628098Y-55240000D01*
X97464000Y-56312000D02*
X101270000Y-56312000D01*
X101270000Y-56312000D02*
X103835000Y-56312000D01*
X100004000Y-56312000D02*
X101270000Y-56312000D01*
%TD*%
M02*
