%TF.GenerationSoftware,KiCad,Pcbnew,(5.1.9)-1*%
%TF.CreationDate,2021-08-14T02:32:22-04:00*%
%TF.ProjectId,samd21,73616d64-3231-42e6-9b69-6361645f7063,rev?*%
%TF.SameCoordinates,Original*%
%TF.FileFunction,Copper,L2,Bot*%
%TF.FilePolarity,Positive*%
%FSLAX46Y46*%
G04 Gerber Fmt 4.6, Leading zero omitted, Abs format (unit mm)*
G04 Created by KiCad (PCBNEW (5.1.9)-1) date 2021-08-14 02:32:22*
%MOMM*%
%LPD*%
G01*
G04 APERTURE LIST*
%TA.AperFunction,ComponentPad*%
%ADD10O,1.700000X1.700000*%
%TD*%
%TA.AperFunction,ComponentPad*%
%ADD11R,1.700000X1.700000*%
%TD*%
%TA.AperFunction,ComponentPad*%
%ADD12O,2.700000X1.700000*%
%TD*%
%TA.AperFunction,ComponentPad*%
%ADD13C,2.250000*%
%TD*%
%TA.AperFunction,ViaPad*%
%ADD14C,0.800000*%
%TD*%
%TA.AperFunction,Conductor*%
%ADD15C,0.381000*%
%TD*%
%TA.AperFunction,Conductor*%
%ADD16C,0.254000*%
%TD*%
G04 APERTURE END LIST*
D10*
%TO.P,J1,4*%
%TO.N,GND*%
X101346000Y-72009000D03*
%TO.P,J1,3*%
%TO.N,SWDIO*%
X98806000Y-72009000D03*
%TO.P,J1,2*%
%TO.N,SWCLK*%
X96266000Y-72009000D03*
D11*
%TO.P,J1,1*%
%TO.N,+3V3*%
X93726000Y-72009000D03*
%TD*%
D12*
%TO.P,USB1,6*%
%TO.N,GND*%
X92964000Y-54262000D03*
X92964000Y-61562000D03*
X97464000Y-61562000D03*
X97464000Y-54262000D03*
%TD*%
D13*
%TO.P,MX3,1*%
%TO.N,+3V3*%
X165013000Y-58738000D03*
%TA.AperFunction,ComponentPad*%
G36*
G01*
X162951688Y-61035350D02*
X162951683Y-61035345D01*
G75*
G02*
X162865655Y-59446683I751317J837345D01*
G01*
X164175657Y-57986683D01*
G75*
G02*
X165764319Y-57900655I837345J-751317D01*
G01*
X165764319Y-57900655D01*
G75*
G02*
X165850347Y-59489317I-751317J-837345D01*
G01*
X164540345Y-60949317D01*
G75*
G02*
X162951683Y-61035345I-837345J751317D01*
G01*
G37*
%TD.AperFunction*%
%TO.P,MX3,2*%
%TO.N,KEY3*%
X170053000Y-57658000D03*
%TA.AperFunction,ComponentPad*%
G36*
G01*
X169936483Y-59360395D02*
X169935597Y-59360334D01*
G75*
G02*
X168890666Y-58160597I77403J1122334D01*
G01*
X168930666Y-57580597D01*
G75*
G02*
X170130403Y-56535666I1122334J-77403D01*
G01*
X170130403Y-56535666D01*
G75*
G02*
X171175334Y-57735403I-77403J-1122334D01*
G01*
X171135334Y-58315403D01*
G75*
G02*
X169935597Y-59360334I-1122334J77403D01*
G01*
G37*
%TD.AperFunction*%
%TD*%
%TO.P,MX2,1*%
%TO.N,+3V3*%
X145963000Y-58738000D03*
%TA.AperFunction,ComponentPad*%
G36*
G01*
X143901688Y-61035350D02*
X143901683Y-61035345D01*
G75*
G02*
X143815655Y-59446683I751317J837345D01*
G01*
X145125657Y-57986683D01*
G75*
G02*
X146714319Y-57900655I837345J-751317D01*
G01*
X146714319Y-57900655D01*
G75*
G02*
X146800347Y-59489317I-751317J-837345D01*
G01*
X145490345Y-60949317D01*
G75*
G02*
X143901683Y-61035345I-837345J751317D01*
G01*
G37*
%TD.AperFunction*%
%TO.P,MX2,2*%
%TO.N,KEY2*%
X151003000Y-57658000D03*
%TA.AperFunction,ComponentPad*%
G36*
G01*
X150886483Y-59360395D02*
X150885597Y-59360334D01*
G75*
G02*
X149840666Y-58160597I77403J1122334D01*
G01*
X149880666Y-57580597D01*
G75*
G02*
X151080403Y-56535666I1122334J-77403D01*
G01*
X151080403Y-56535666D01*
G75*
G02*
X152125334Y-57735403I-77403J-1122334D01*
G01*
X152085334Y-58315403D01*
G75*
G02*
X150885597Y-59360334I-1122334J77403D01*
G01*
G37*
%TD.AperFunction*%
%TD*%
%TO.P,MX1,1*%
%TO.N,+3V3*%
X126890000Y-58724000D03*
%TA.AperFunction,ComponentPad*%
G36*
G01*
X124828688Y-61021350D02*
X124828683Y-61021345D01*
G75*
G02*
X124742655Y-59432683I751317J837345D01*
G01*
X126052657Y-57972683D01*
G75*
G02*
X127641319Y-57886655I837345J-751317D01*
G01*
X127641319Y-57886655D01*
G75*
G02*
X127727347Y-59475317I-751317J-837345D01*
G01*
X126417345Y-60935317D01*
G75*
G02*
X124828683Y-61021345I-837345J751317D01*
G01*
G37*
%TD.AperFunction*%
%TO.P,MX1,2*%
%TO.N,KEY1*%
X131930000Y-57644000D03*
%TA.AperFunction,ComponentPad*%
G36*
G01*
X131813483Y-59346395D02*
X131812597Y-59346334D01*
G75*
G02*
X130767666Y-58146597I77403J1122334D01*
G01*
X130807666Y-57566597D01*
G75*
G02*
X132007403Y-56521666I1122334J-77403D01*
G01*
X132007403Y-56521666D01*
G75*
G02*
X133052334Y-57721403I-77403J-1122334D01*
G01*
X133012334Y-58301403D01*
G75*
G02*
X131812597Y-59346334I-1122334J77403D01*
G01*
G37*
%TD.AperFunction*%
%TD*%
D14*
%TO.N,+3V3*%
X104267000Y-68961000D03*
X118364000Y-59309000D03*
%TO.N,Net-(SW1-Pad2)*%
X108966000Y-60325000D03*
X105156000Y-65405000D03*
%TD*%
D15*
%TO.N,+3V3*%
X117348000Y-59309000D02*
X108077000Y-59309000D01*
X104267000Y-63119000D02*
X104267000Y-65278000D01*
X108077000Y-59309000D02*
X104267000Y-63119000D01*
X104267000Y-65278000D02*
X104267000Y-68961000D01*
X104267000Y-64643000D02*
X104267000Y-65278000D01*
X117348000Y-59309000D02*
X118364000Y-59309000D01*
X144639000Y-60184000D02*
X144653000Y-60198000D01*
X125580000Y-60184000D02*
X144639000Y-60184000D01*
X144653000Y-60198000D02*
X163703000Y-60198000D01*
X119239000Y-60184000D02*
X118364000Y-59309000D01*
X125580000Y-60184000D02*
X119239000Y-60184000D01*
D16*
%TO.N,Net-(SW1-Pad2)*%
X105156000Y-64135000D02*
X108966000Y-60325000D01*
X105156000Y-65405000D02*
X105156000Y-64135000D01*
%TD*%
M02*
