%TF.GenerationSoftware,KiCad,Pcbnew,(5.1.9)-1*%
%TF.CreationDate,2021-08-14T13:48:32-04:00*%
%TF.ProjectId,samd21,73616d64-3231-42e6-9b69-6361645f7063,rev?*%
%TF.SameCoordinates,Original*%
%TF.FileFunction,Soldermask,Top*%
%TF.FilePolarity,Negative*%
%FSLAX46Y46*%
G04 Gerber Fmt 4.6, Leading zero omitted, Abs format (unit mm)*
G04 Created by KiCad (PCBNEW (5.1.9)-1) date 2021-08-14 13:48:32*
%MOMM*%
%LPD*%
G01*
G04 APERTURE LIST*
%ADD10O,1.700000X1.700000*%
%ADD11R,1.700000X1.700000*%
%ADD12O,2.700000X1.700000*%
%ADD13R,2.250000X0.500000*%
%ADD14R,1.800000X1.100000*%
%ADD15R,1.600000X0.550000*%
%ADD16R,0.550000X1.600000*%
%ADD17R,1.060000X0.650000*%
%ADD18C,1.750000*%
%ADD19C,3.987800*%
G04 APERTURE END LIST*
D10*
%TO.C,J1*%
X101346000Y-72009000D03*
X98806000Y-72009000D03*
X96266000Y-72009000D03*
D11*
X93726000Y-72009000D03*
%TD*%
D12*
%TO.C,USB1*%
X92964000Y-54262000D03*
X92964000Y-61562000D03*
X97464000Y-61562000D03*
X97464000Y-54262000D03*
D13*
X97464000Y-56312000D03*
X97464000Y-57112000D03*
X97464000Y-57912000D03*
X97464000Y-58712000D03*
X97464000Y-59512000D03*
%TD*%
D14*
%TO.C,SW1*%
X110894000Y-61087000D03*
X117094000Y-57387000D03*
X110894000Y-57387000D03*
X117094000Y-61087000D03*
%TD*%
D15*
%TO.C,U2*%
X107002000Y-70491000D03*
X107002000Y-69691000D03*
X107002000Y-68891000D03*
X107002000Y-68091000D03*
X107002000Y-67291000D03*
X107002000Y-66491000D03*
X107002000Y-65691000D03*
X107002000Y-64891000D03*
D16*
X108452000Y-63441000D03*
X109252000Y-63441000D03*
X110052000Y-63441000D03*
X110852000Y-63441000D03*
X111652000Y-63441000D03*
X112452000Y-63441000D03*
X113252000Y-63441000D03*
X114052000Y-63441000D03*
D15*
X115502000Y-64891000D03*
X115502000Y-65691000D03*
X115502000Y-66491000D03*
X115502000Y-67291000D03*
X115502000Y-68091000D03*
X115502000Y-68891000D03*
X115502000Y-69691000D03*
X115502000Y-70491000D03*
D16*
X114052000Y-71941000D03*
X113252000Y-71941000D03*
X112452000Y-71941000D03*
X111652000Y-71941000D03*
X110852000Y-71941000D03*
X110052000Y-71941000D03*
X109252000Y-71941000D03*
X108452000Y-71941000D03*
%TD*%
D17*
%TO.C,U1*%
X112436000Y-53340000D03*
X112436000Y-55240000D03*
X110236000Y-55240000D03*
X110236000Y-54290000D03*
X110236000Y-53340000D03*
%TD*%
%TO.C,R1*%
G36*
G01*
X99699500Y-64827998D02*
X99699500Y-65728002D01*
G75*
G02*
X99449502Y-65978000I-249998J0D01*
G01*
X98924498Y-65978000D01*
G75*
G02*
X98674500Y-65728002I0J249998D01*
G01*
X98674500Y-64827998D01*
G75*
G02*
X98924498Y-64578000I249998J0D01*
G01*
X99449502Y-64578000D01*
G75*
G02*
X99699500Y-64827998I0J-249998D01*
G01*
G37*
G36*
G01*
X101524500Y-64827998D02*
X101524500Y-65728002D01*
G75*
G02*
X101274502Y-65978000I-249998J0D01*
G01*
X100749498Y-65978000D01*
G75*
G02*
X100499500Y-65728002I0J249998D01*
G01*
X100499500Y-64827998D01*
G75*
G02*
X100749498Y-64578000I249998J0D01*
G01*
X101274502Y-64578000D01*
G75*
G02*
X101524500Y-64827998I0J-249998D01*
G01*
G37*
%TD*%
D18*
%TO.C,MX3*%
X172593000Y-62738000D03*
X162433000Y-62738000D03*
D19*
X167513000Y-62738000D03*
%TD*%
D18*
%TO.C,MX2*%
X153543000Y-62738000D03*
X143383000Y-62738000D03*
D19*
X148463000Y-62738000D03*
%TD*%
D18*
%TO.C,MX1*%
X134470000Y-62724000D03*
X124310000Y-62724000D03*
D19*
X129390000Y-62724000D03*
%TD*%
%TO.C,D1*%
G36*
G01*
X95065000Y-65734250D02*
X95065000Y-64821750D01*
G75*
G02*
X95308750Y-64578000I243750J0D01*
G01*
X95796250Y-64578000D01*
G75*
G02*
X96040000Y-64821750I0J-243750D01*
G01*
X96040000Y-65734250D01*
G75*
G02*
X95796250Y-65978000I-243750J0D01*
G01*
X95308750Y-65978000D01*
G75*
G02*
X95065000Y-65734250I0J243750D01*
G01*
G37*
G36*
G01*
X93190000Y-65734250D02*
X93190000Y-64821750D01*
G75*
G02*
X93433750Y-64578000I243750J0D01*
G01*
X93921250Y-64578000D01*
G75*
G02*
X94165000Y-64821750I0J-243750D01*
G01*
X94165000Y-65734250D01*
G75*
G02*
X93921250Y-65978000I-243750J0D01*
G01*
X93433750Y-65978000D01*
G75*
G02*
X93190000Y-65734250I0J243750D01*
G01*
G37*
%TD*%
%TO.C,C3*%
G36*
G01*
X115222000Y-54740000D02*
X116172000Y-54740000D01*
G75*
G02*
X116422000Y-54990000I0J-250000D01*
G01*
X116422000Y-55490000D01*
G75*
G02*
X116172000Y-55740000I-250000J0D01*
G01*
X115222000Y-55740000D01*
G75*
G02*
X114972000Y-55490000I0J250000D01*
G01*
X114972000Y-54990000D01*
G75*
G02*
X115222000Y-54740000I250000J0D01*
G01*
G37*
G36*
G01*
X115222000Y-52840000D02*
X116172000Y-52840000D01*
G75*
G02*
X116422000Y-53090000I0J-250000D01*
G01*
X116422000Y-53590000D01*
G75*
G02*
X116172000Y-53840000I-250000J0D01*
G01*
X115222000Y-53840000D01*
G75*
G02*
X114972000Y-53590000I0J250000D01*
G01*
X114972000Y-53090000D01*
G75*
G02*
X115222000Y-52840000I250000J0D01*
G01*
G37*
%TD*%
%TO.C,C2*%
G36*
G01*
X106332000Y-54740000D02*
X107282000Y-54740000D01*
G75*
G02*
X107532000Y-54990000I0J-250000D01*
G01*
X107532000Y-55490000D01*
G75*
G02*
X107282000Y-55740000I-250000J0D01*
G01*
X106332000Y-55740000D01*
G75*
G02*
X106082000Y-55490000I0J250000D01*
G01*
X106082000Y-54990000D01*
G75*
G02*
X106332000Y-54740000I250000J0D01*
G01*
G37*
G36*
G01*
X106332000Y-52840000D02*
X107282000Y-52840000D01*
G75*
G02*
X107532000Y-53090000I0J-250000D01*
G01*
X107532000Y-53590000D01*
G75*
G02*
X107282000Y-53840000I-250000J0D01*
G01*
X106332000Y-53840000D01*
G75*
G02*
X106082000Y-53590000I0J250000D01*
G01*
X106082000Y-53090000D01*
G75*
G02*
X106332000Y-52840000I250000J0D01*
G01*
G37*
%TD*%
%TO.C,C1*%
G36*
G01*
X97798000Y-68039000D02*
X97798000Y-67089000D01*
G75*
G02*
X98048000Y-66839000I250000J0D01*
G01*
X98548000Y-66839000D01*
G75*
G02*
X98798000Y-67089000I0J-250000D01*
G01*
X98798000Y-68039000D01*
G75*
G02*
X98548000Y-68289000I-250000J0D01*
G01*
X98048000Y-68289000D01*
G75*
G02*
X97798000Y-68039000I0J250000D01*
G01*
G37*
G36*
G01*
X95898000Y-68039000D02*
X95898000Y-67089000D01*
G75*
G02*
X96148000Y-66839000I250000J0D01*
G01*
X96648000Y-66839000D01*
G75*
G02*
X96898000Y-67089000I0J-250000D01*
G01*
X96898000Y-68039000D01*
G75*
G02*
X96648000Y-68289000I-250000J0D01*
G01*
X96148000Y-68289000D01*
G75*
G02*
X95898000Y-68039000I0J250000D01*
G01*
G37*
%TD*%
M02*
